<svg xmlns="http://www.w3.org/2000/svg" width="678.67" height="273.08" viewBox="0 0 678.67 273.08"><defs><style>.cls-1{fill:#34a7ec;}.cls-2{fill:#3d8fe0;}</style></defs><title>Asset 2</title><g id="Layer_2" data-name="Layer 2"><g id="Layer_1-2" data-name="Layer 1"><path class="cls-1" d="M421.62,97l-82.1,66.16L257,96.74,339.41,0ZM352,56.48c3.25-8.33,2.3-14-2.74-18.38-4.13-3.58-11.73-4.62-16.42-1.73-8.67,5.35-9.17,13-4.83,21.26L301.21,82c-9-2.09-14.3-.52-17.62,5-2.75,4.56-2.38,11.06,1.16,14.92,4.7,5.13,10.7,6.15,19.59,1.47l24.83,13.28c-3.52,8.84-2.92,14.37,1.73,18.37a13.44,13.44,0,0,0,14.95,1.61c7.63-4.39,8.16-11,5-18.52l22.11-15.47c8.12,4.71,14,4.62,18.81,0a12.59,12.59,0,0,0,2.58-15.06c-3.36-6.38-8.2-7.69-20.06-5.21Z"/><path class="cls-2" d="M636.87,258.73a15.51,15.51,0,0,1-7.72.07V225.85c2.88-.47,5.6-1.1,8.3.78,5.87-3.4,12.18-.21,18.62-1.32L664,244.56l7-18.67a16.07,16.07,0,0,1,7.64-.06c.1,7.36-16.1,41.68-22.33,47.25-2.59-.18-5-1.17-8-2.77a33.52,33.52,0,0,0,10.95-16.83l-11.08-25.21-1,.11-.66,5.31c-3.62-1.17-7-1.88-9.74,2.31Z"/><path class="cls-2" d="M408.59,258.93V216.57c13.2-3.07,25.24.26,30.51,8.31,4.69,7.16,4.45,19.48-.51,26.53C433.17,259.11,420.91,262.29,408.59,258.93Zm8.74-35V252c5.82,1.07,10.85.27,13.88-4.79,3.38-5.66,3.13-11.85.21-17.6C428.6,224,423.25,223.48,417.33,223.89Z"/><path class="cls-2" d="M39.19,259.17H30c-2.17-2.56-2-6-3.85-8.86H12.06l-3.1,9a26.89,26.89,0,0,1-9-.39l15.06-42.42h8.63ZM19.25,227.84c-2,5.32-3.53,9.42-4.2,14.3,3.06-.19,5.76.46,8.7-.53Z"/><path class="cls-2" d="M215.69,216.51,231.12,259h-9.61l-3.1-8.56c-4.72-.65-9.33-.34-13.88-.21-2.12,2.68-1.94,6.12-3.77,9.11-2.61.47-5.33.15-8.77-.37L207,216.51Zm-4.45,11.31c-2.06,5.53-3.55,9.56-4.16,14.16,3,.11,5.73.57,8.68-.36Z"/><path class="cls-2" d="M378.47,243.94c-8.31,1.92-16.17.46-23.92,1.29,2.28,6.88,6.38,7.87,21.19,5.18,0,1.19.08,2.33,0,3.46s-.37,2.27-.54,3.26c-12.62,6.67-27.46.81-29.67-11.53-1.23-6.88,1.76-14.22,7.6-17.78,6.15-3.75,12.73-4.36,18.9-.41C377.76,231.1,379.22,237,378.47,243.94Zm-24.47-5c5.62-.32,10.61.57,15.89-.65-1.23-3.85-3-6.28-7-6.36C358.48,231.83,355.68,233.82,354,238.93Z"/><path class="cls-2" d="M144.35,245.19c3,7.15,8.26,8.35,21,5.11,1,2.27.31,4.48-.14,6.62-7.15,4.37-17.2,3.88-23.53-1.07-5.75-4.49-7.77-11.38-5.53-18.86,2.63-8.79,12.28-14,21.56-11.61,7.74,2,12.28,10.05,10.2,18.74C160.37,245.8,152.5,244.51,144.35,245.19Zm15.49-6.56c-1.08-4.49-3.23-6.73-7.37-6.71-4.38,0-6.92,2.25-8.42,6.71Z"/><path class="cls-2" d="M521.09,244.1c-7.61,1.78-15.62.32-23.52,1.12,2.5,7,8.61,8.46,20.55,5.09.76,3,.76,3,.14,6.55-8.22,5.41-20.78,3.48-26.56-4.08-5.43-7.1-4.09-17.91,2.95-23.87,5.26-4.46,13.93-5.35,19.7-2S522.63,236.51,521.09,244.1ZM513,238.61c-1.18-4.39-3.22-6.7-7.39-6.69-4.39,0-7,2.2-8.48,6.69Z"/><path class="cls-2" d="M622,242.21c0,10.5-7.22,17.75-17.51,17.69s-17.12-7.17-16.94-17.54,7.59-17.47,17.88-17.37C615.55,225.08,622,231.82,622,242.21Zm-26.3.36c.1,6.09,3.78,9.86,9.53,9.76,5.22-.09,8.63-4.16,8.52-10.17-.1-5.73-3.86-9.87-9-9.93C599.36,232.16,595.59,236.48,595.68,242.57Z"/><path class="cls-2" d="M97,249.43V226.3c2.66-1.34,5.06-.91,7.8-.45V259c-2.83-.07-5.73,1.39-8.47-1.52-.91.39-2.07,1-3.28,1.42-7.82,3-14.65-.94-15.84-9.15a24.65,24.65,0,0,1-.15-3.49c0-6.78,0-13.55,0-20.39a14.34,14.34,0,0,1,8,.21c0,6.1-.06,12.22,0,18.35,0,2.86.28,5.95,3.4,7.19S94.39,252.07,97,249.43Z"/><path class="cls-2" d="M71,225.79,55.1,252.43c5.51.83,10.38.32,15.57.32a18.89,18.89,0,0,1-1.8,7c-9-.18-18-.74-28,.3l16.72-27.83a62.4,62.4,0,0,0-13,.21c-1.12-2.12-.63-4.21-.3-6.65Z"/><path class="cls-2" d="M309.13,225.84a26.82,26.82,0,0,1,9.19,0l7.79,21.5L333.54,226c2.91-.88,5.51-.71,9-.09l-12.87,32.76c-2.43.82-4.56.61-7.21.21Z"/><path class="cls-2" d="M553.56,235c-7-3.46-12.75-3.29-15.77.4-2.66,3.24-2.68,10.08-.05,13.65,3.07,4.17,8,4.24,17.06.1l.6,6.72c-6.94,5.66-17.47,5.26-23.53-.64-5.91-5.75-6.57-16.39-1.46-23.45s15.73-9,24.4-4.29A10.73,10.73,0,0,1,553.56,235Z"/><path class="cls-2" d="M260.75,235.07c-7.66-3.6-13.32-3.31-16.29.66-2.49,3.34-2.3,10.43.37,13.67,3.14,3.81,8.23,3.82,16.91-.22l.45,6.68a18,18,0,0,1-23-.25C233,250,232.08,239.49,237,232.27c5.13-7.48,15.52-9.56,24.64-4.85C262.36,229.88,261.64,232.24,260.75,235.07Z"/><path class="cls-2" d="M271.07,233.48l-4.46-.78a13.59,13.59,0,0,1-.21-6.71l4.45-1.06.39-7.92c2.41-1.39,4.82-.47,7.49-.69l.65,8.82,8.31.6v6.61c-2.45,1.68-5.52-.13-8,1.18-1.23,6.75-.84,13.61,1,17.52,2.8,2,5.67.76,8.78-.11,1.07,2.27.4,4.49.49,6.51-10.59,5.84-18.72,1.27-18.85-10.28C271,242.72,271.07,238.26,271.07,233.48Z"/><path class="cls-2" d="M564.12,233.47l-4.27-.71c-1.14-2.08-.59-4.22-.51-6.23,1.07-1.67,2.9-.71,4.26-1.55,1.31-2.5-.24-5.5,1.1-8.41h6.74c1.54,2.61,0,5.63,1.09,8.23,2.51,1.43,5.35,0,8.09,1.19.84,2.09.32,4.31.25,6.8l-8.61.58c.1,6.07-1.13,12,1,17.34,3.31,2.36,6.18,1,9.29.27a12.28,12.28,0,0,1,.22,6.66c-10.63,5.59-18.5,1-18.65-10.63C564.08,242.68,564.12,238.36,564.12,233.47Z"/><path class="cls-2" d="M114.84,225.15c6.19,1.43,11.85.06,17.69,0a19.58,19.58,0,0,1,0,8.47c-3.57-1-7.05-1.91-9.79,2.62V258.8a13.66,13.66,0,0,1-7.87.12Z"/><path class="cls-2" d="M475.69,236.25v22.7H468.2V226a9.59,9.59,0,0,1,8.48.66,9.32,9.32,0,0,1,9-1c.86,2.5,0,5.06.22,8.09C482.07,232.56,478.63,231.77,475.69,236.25Z"/><path class="cls-2" d="M458.36,259a16,16,0,0,1-7.67.06V226c2.49-.87,4.89-.63,7.67-.15Z"/><path class="cls-2" d="M304.2,259a14.74,14.74,0,0,1-8-.15c0-5.38,0-10.81,0-16.25s0-10.92,0-16.34c2.74-1.23,5.16-.82,8-.39Z"/><path class="cls-2" d="M457,221l-6.8-4.79a19.26,19.26,0,0,1,5.42-7.22l6.58,5.19C460.62,216.79,459.31,219.06,457,221Z"/><path class="cls-2" d="M308.31,214.35l-4.81,6.52c-2.89-.77-4.72-3-7.25-4.57,1-3,3-5.1,5.28-7.32Z"/><path class="cls-1" d="M307,97.18c1.72-3.89-.07-6.93-.89-10.4l26.57-24.14a4.65,4.65,0,0,1,3,4.69c0,15.1,0,30.21,0,46.88Z"/><path class="cls-1" d="M369.92,88.16v8l-27.71,17.64V65.53a14.15,14.15,0,0,1,5.09-3.66Z"/></g></g></svg>